<?xml version="1.0" encoding="UTF-8"?>
<svg width="460px" height="42px" viewBox="0 0 460 42" version="1.1" xmlns="http://www.w3.org/2000/svg" xmlns:xlink="http://www.w3.org/1999/xlink">
    <!-- Generator: Sketch 47.1 (45422) - http://www.bohemiancoding.com/sketch -->
    <title>Fitness Fun &amp; Games</title>
    <desc>Created with Sketch.</desc>
    <defs></defs>
    <g id="Page-1" stroke="none" stroke-width="1" fill="none" fill-rule="evenodd">
        <path d="M15.2304687,19.2866211 L16.6518555,17.6850586 L18.7739258,17.6850586 L21.2963867,4.93261719 C18.5603704,4.93261719 16.3415612,5.66999588 14.6398926,7.14477539 C12.9382239,8.6195549 12.0874023,10.5447472 12.0874023,12.9204102 L12.1074219,13.3608398 L8.20361328,15.2426758 C8.55062022,11.1453246 10.142157,8.14242491 12.9782715,6.23388672 C15.8143859,4.32534853 20.0951862,3.37109375 25.8208008,3.37109375 L37.3720703,3.37109375 L35.5703125,9.03662109 L34.2890625,9.03662109 C34.462566,8.50276426 34.5493164,7.97558854 34.5493164,7.45507812 C34.5493164,5.72004341 31.8200143,4.85253906 26.3613281,4.85253906 L25.5004883,4.85253906 L22.9580078,17.6850586 L31.6865234,17.6850586 L29.7045898,19.7270508 C27.5691625,19.4334295 25.540537,19.2866211 23.6186523,19.2866211 L22.6376953,19.2866211 L21.4765625,25.1523437 C20.5022738,30.0905195 18.6171201,34.0343277 15.8210449,36.9838867 C13.0249697,39.9334457 9.77182845,41.4082031 6.06152344,41.4082031 C4.0595603,41.4082031 2.27116673,40.6541417 0.696289062,39.1459961 L3.63916016,36.1430664 C4.69352741,38.3318794 6.38849744,39.4262695 8.72412109,39.4262695 C10.8595484,39.4262695 12.5378357,38.4620051 13.7590332,36.5334473 C14.9802307,34.6048894 16.0779574,31.1915935 17.0522461,26.293457 L18.4536133,19.2866211 L15.2304687,19.2866211 Z M49.8242188,26.934082 L49.4638672,28.7958984 C46.541001,31.9323073 43.9184686,33.5004883 41.5961914,33.5004883 C39.6743068,33.5004883 38.7133789,32.4928486 38.7133789,30.4775391 C38.7133789,29.7968716 38.8668604,28.6757891 39.1738281,27.1142578 L40.5551758,20.1474609 C40.9288756,18.1721906 41.1157227,16.8575879 41.1157227,16.2036133 C41.1157227,15.0825139 40.6819705,14.5219727 39.8144531,14.5219727 C39.2138642,14.5219727 38.1394934,14.7555315 36.5913086,15.2226562 L36.831543,13.9814453 L46.6210938,10.7783203 L45.0996094,17.1845703 L43.1376953,27.0742188 C42.8307276,28.6224036 42.6772461,29.6100239 42.6772461,30.0371094 C42.6772461,30.9046267 43.0709596,31.3383789 43.8583984,31.3383789 C45.1796941,31.3383789 47.168281,29.8702946 49.8242188,26.934082 Z M42.4770508,7.29492188 L43.8183594,4.57226562 L49.4638672,0.888671875 L47.7421875,4.57226562 L42.4770508,7.29492188 Z M56.6308594,12.7402344 L52.0463867,12.7402344 L53.4277344,11.2587891 L56.9111328,11.2587891 L58.0522461,5.59326172 L62.1962891,4.59228516 L60.875,11.2587891 L68.4223633,11.2587891 L66.7807617,13.0205078 C65.0590734,12.8336579 63.5309312,12.7402344 62.1962891,12.7402344 L60.574707,12.7402344 L57.8520508,26.4536133 C57.5717759,27.8683339 57.4316406,28.8626273 57.4316406,29.4365234 C57.4316406,30.4908907 57.8987583,31.0180664 58.8330078,31.0180664 C60.2744213,31.0180664 62.2429888,29.9503687 64.7387695,27.8149414 L64.378418,29.6567383 C61.7892123,32.2192511 59.3001422,33.5004883 56.9111328,33.5004883 C54.6422413,33.5004883 53.5078125,32.2459435 53.5078125,29.7368164 C53.5078125,28.8426062 53.6546209,27.6547926 53.9482422,26.1733398 L56.6308594,12.7402344 Z M71.5854492,33.2402344 L73.0668945,27.0742188 L75.0288086,17.1845703 C75.3357763,15.6497319 75.4892578,14.6487654 75.4892578,14.1816406 C75.4892578,13.3541625 75.0955443,12.9404297 74.3081055,12.9404297 C73.0001562,12.9404297 71.0115693,14.4018409 68.3422852,17.324707 L68.7026367,15.4829102 C71.6121565,12.3465012 74.2346888,10.7783203 76.5703125,10.7783203 C78.4921971,10.7783203 79.453125,11.7792869 79.453125,13.78125 C79.453125,14.4619175 79.2996435,15.5963462 78.9926758,17.1845703 L78.0117188,22.1293945 L78.3120117,22.1293945 C79.9803143,18.7127108 81.865468,15.9667259 83.9675293,13.8913574 C86.0695906,11.815989 88.0281485,10.7783203 89.8432617,10.7783203 C92.0320747,10.7783203 93.1264648,11.9928264 93.1264648,14.421875 C93.1264648,15.2093138 93.013022,16.1702417 92.7861328,17.3046875 L90.8442383,27.0742188 C90.5372706,28.6224036 90.3837891,29.6233701 90.3837891,30.0771484 C90.3837891,30.917973 90.7775026,31.3383789 91.5649414,31.3383789 C92.8995835,31.3383789 94.8948435,29.8702946 97.5507812,26.934082 L97.1704102,28.7958984 C94.2608904,31.9323073 91.638358,33.5004883 89.3027344,33.5004883 C87.3808498,33.5004883 86.4199219,32.4928486 86.4199219,30.4775391 C86.4199219,29.810218 86.5800765,28.6757893 86.9003906,27.0742188 L88.8422852,17.2646484 C89.0024422,16.5039024 89.0825195,15.8632839 89.0825195,15.3427734 C89.0825195,14.2617133 88.6821329,13.7211914 87.8813477,13.7211914 C85.3321813,13.7211914 81.7954328,17.7650963 77.2709961,25.8530273 L75.8095703,33 L71.5854492,33.2402344 Z M116.909668,27.534668 L116.609375,29.0761719 C112.365213,32.0257309 108.748387,33.5004883 105.758789,33.5004883 C103.863597,33.5004883 102.325445,32.8365138 101.144287,31.5085449 C99.9631289,30.180576 99.3725586,28.4622501 99.3725586,26.3535156 C99.3725586,22.5898249 100.81395,19.0497399 103.696777,15.7331543 C106.579604,12.4165687 109.655908,10.7583008 112.925781,10.7583008 C114.113613,10.7583008 115.074541,11.1586874 115.808594,11.9594727 C116.542647,12.7602579 116.909668,13.8012631 116.909668,15.0825195 C116.909668,17.6450323 115.601738,19.8471588 112.98584,21.6889648 C110.369941,23.5307709 107.246926,24.4516602 103.616699,24.4516602 L103.59668,25.3525391 C103.59668,29.249694 105.024725,31.1982422 107.880859,31.1982422 C110.349947,31.1982422 113.35952,29.977063 116.909668,27.534668 Z M103.656738,23.2104492 C106.646337,22.9702136 108.981925,22.1994694 110.663574,20.8981934 C112.345223,19.5969173 113.186035,17.911957 113.186035,15.8432617 C113.186035,13.8012593 112.44532,12.7802734 110.963867,12.7802734 C109.362297,12.7802734 107.814135,13.8446345 106.319336,15.9733887 C104.824537,18.1021428 103.937013,20.5144722 103.656738,23.2104492 Z M118.931641,32.3193359 L121.554199,29.6166992 C123.289234,30.8846092 125.057608,31.5185547 126.859375,31.5185547 C127.967128,31.5185547 128.901363,31.2282744 129.662109,30.6477051 C130.422855,30.0671358 130.803223,29.3497764 130.803223,28.4956055 C130.803223,27.5480096 130.049161,26.2534262 128.541016,24.6118164 L126.719238,22.6098633 C124.944164,20.6612858 124.056641,19.0330469 124.056641,17.7250977 C124.056641,15.9099844 124.917472,14.2984283 126.63916,12.8903809 C128.360848,11.4823335 130.329416,10.7783203 132.544922,10.7783203 C133.759446,10.7783203 135.120761,11.0318985 136.628906,11.5390625 L135.748047,15.9633789 L134.486816,15.9633789 L134.546875,15.6230469 C134.573568,15.5029291 134.586914,15.3627938 134.586914,15.2026367 C134.586914,13.4008699 133.425793,12.5 131.103516,12.5 C128.500964,12.5 127.199707,13.5410052 127.199707,15.6230469 C127.199707,16.6774141 127.973788,18.0787673 129.521973,19.8271484 L131.163574,21.6489258 C132.951995,23.6642353 133.846191,25.3191667 133.846191,26.6137695 C133.846191,28.4021899 132.89861,29.9970633 131.003418,31.3984375 C129.108226,32.7998117 126.952812,33.5004883 124.537109,33.5004883 C122.842114,33.5004883 120.973643,33.1067748 118.931641,32.3193359 Z M137.429688,32.3193359 L140.052246,29.6166992 C141.787281,30.8846092 143.555655,31.5185547 145.357422,31.5185547 C146.465175,31.5185547 147.39941,31.2282744 148.160156,30.6477051 C148.920902,30.0671358 149.30127,29.3497764 149.30127,28.4956055 C149.30127,27.5480096 148.547208,26.2534262 147.039062,24.6118164 L145.217285,22.6098633 C143.442211,20.6612858 142.554688,19.0330469 142.554688,17.7250977 C142.554688,15.9099844 143.415519,14.2984283 145.137207,12.8903809 C146.858895,11.4823335 148.827463,10.7783203 151.042969,10.7783203 C152.257493,10.7783203 153.618808,11.0318985 155.126953,11.5390625 L154.246094,15.9633789 L152.984863,15.9633789 L153.044922,15.6230469 C153.071615,15.5029291 153.084961,15.3627938 153.084961,15.2026367 C153.084961,13.4008699 151.92384,12.5 149.601562,12.5 C146.99901,12.5 145.697754,13.5410052 145.697754,15.6230469 C145.697754,16.6774141 146.471835,18.0787673 148.02002,19.8271484 L149.661621,21.6489258 C151.450041,23.6642353 152.344238,25.3191667 152.344238,26.6137695 C152.344238,28.4021899 151.396657,29.9970633 149.501465,31.3984375 C147.606273,32.7998117 145.450858,33.5004883 143.035156,33.5004883 C141.340161,33.5004883 139.47169,33.1067748 137.429688,32.3193359 Z M182.713867,19.2866211 L184.135254,17.6850586 L186.257324,17.6850586 L188.779785,4.93261719 C186.043769,4.93261719 183.82496,5.66999588 182.123291,7.14477539 C180.421622,8.6195549 179.570801,10.5447472 179.570801,12.9204102 L179.59082,13.3608398 L175.687012,15.2426758 C176.034019,11.1453246 177.625555,8.14242491 180.46167,6.23388672 C183.297784,4.32534853 187.578585,3.37109375 193.304199,3.37109375 L204.855469,3.37109375 L203.053711,9.03662109 L201.772461,9.03662109 C201.945964,8.50276426 202.032715,7.97558854 202.032715,7.45507812 C202.032715,5.72004341 199.303413,4.85253906 193.844727,4.85253906 L192.983887,4.85253906 L190.441406,17.6850586 L199.169922,17.6850586 L197.187988,19.7270508 C195.052561,19.4334295 193.023935,19.2866211 191.102051,19.2866211 L190.121094,19.2866211 L188.959961,25.1523437 C187.985672,30.0905195 186.100519,34.0343277 183.304443,36.9838867 C180.508368,39.9334457 177.255227,41.4082031 173.544922,41.4082031 C171.542959,41.4082031 169.754565,40.6541417 168.179687,39.1459961 L171.122559,36.1430664 C172.176926,38.3318794 173.871896,39.4262695 176.20752,39.4262695 C178.342947,39.4262695 180.021234,38.4620051 181.242432,36.5334473 C182.463629,34.6048894 183.561356,31.1915935 184.535645,26.293457 L185.937012,19.2866211 L182.713867,19.2866211 Z M220.750977,22.1293945 L220.410645,22.1293945 C216.620261,29.7101616 212.923358,33.5004883 209.319824,33.5004883 C207.184397,33.5004883 206.116699,32.2392704 206.116699,29.7167969 C206.116699,28.9960901 206.223469,28.0952202 206.437012,27.0141602 L208.378906,17.1845703 C208.685874,15.6497319 208.839355,14.6487654 208.839355,14.1816406 C208.839355,13.3541625 208.445642,12.9404297 207.658203,12.9404297 C206.350254,12.9404297 204.361667,14.4018409 201.692383,17.324707 L202.052734,15.4829102 C204.962254,12.3465012 207.584786,10.7783203 209.92041,10.7783203 C211.855641,10.7783203 212.823242,11.7792869 212.823242,13.78125 C212.823242,14.448571 212.663088,15.5829998 212.342773,17.1845703 L210.380859,27.0341797 C210.207356,27.9150435 210.120605,28.5423158 210.120605,28.9160156 C210.120605,29.9970757 210.514319,30.5375977 211.301758,30.5375977 C212.302739,30.5375977 213.820872,29.3264281 215.856201,26.9040527 C217.89153,24.4816773 219.763338,21.6622882 221.47168,18.4458008 L222.913086,11.2587891 L227.157227,11.0185547 L225.675781,17.1845703 L223.713867,27.0742188 C223.4069,28.6090572 223.253418,29.6100237 223.253418,30.0771484 C223.253418,30.917973 223.647131,31.3383789 224.43457,31.3383789 C225.755866,31.3383789 227.744453,29.8702946 230.400391,26.934082 L230.040039,28.7958984 C227.117173,31.9323073 224.494641,33.5004883 222.172363,33.5004883 C220.237132,33.5004883 219.269531,32.4928486 219.269531,30.4775391 C219.269531,29.7968716 219.429686,28.6624428 219.75,27.0742188 L220.750977,22.1293945 Z M233.543457,33.2402344 L235.024902,27.0742188 L236.986816,17.1845703 C237.293784,15.6497319 237.447266,14.6487654 237.447266,14.1816406 C237.447266,13.3541625 237.053552,12.9404297 236.266113,12.9404297 C234.958164,12.9404297 232.969577,14.4018409 230.300293,17.324707 L230.660645,15.4829102 C233.570164,12.3465012 236.192697,10.7783203 238.52832,10.7783203 C240.450205,10.7783203 241.411133,11.7792869 241.411133,13.78125 C241.411133,14.4619175 241.257651,15.5963462 240.950684,17.1845703 L239.969727,22.1293945 L240.27002,22.1293945 C241.938322,18.7127108 243.823476,15.9667259 245.925537,13.8913574 C248.027598,11.815989 249.986156,10.7783203 251.80127,10.7783203 C253.990083,10.7783203 255.084473,11.9928264 255.084473,14.421875 C255.084473,15.2093138 254.97103,16.1702417 254.744141,17.3046875 L252.802246,27.0742188 C252.495278,28.6224036 252.341797,29.6233701 252.341797,30.0771484 C252.341797,30.917973 252.73551,31.3383789 253.522949,31.3383789 C254.857591,31.3383789 256.852851,29.8702946 259.508789,26.934082 L259.128418,28.7958984 C256.218898,31.9323073 253.596366,33.5004883 251.260742,33.5004883 C249.338858,33.5004883 248.37793,32.4928486 248.37793,30.4775391 C248.37793,29.810218 248.538084,28.6757893 248.858398,27.0742188 L250.800293,17.2646484 C250.96045,16.5039024 251.040527,15.8632839 251.040527,15.3427734 C251.040527,14.2617133 250.640141,13.7211914 249.839355,13.7211914 C247.290189,13.7211914 243.753441,17.7650963 239.229004,25.8530273 L237.767578,33 L233.543457,33.2402344 Z M291.419922,30.2773438 C288.550441,32.5862746 285.734389,33.7407227 282.97168,33.7407227 C280.662749,33.7407227 278.737557,32.9866612 277.196045,31.4785156 C275.654533,29.9703701 274.883789,28.0818798 274.883789,25.8129883 C274.883789,21.5287872 278.026824,18.1121547 284.312988,15.5629883 C283.592282,13.5476787 283.231934,11.9661516 283.231934,10.8183594 C283.231934,8.72297129 284.122794,6.83114451 285.904541,5.14282227 C287.686288,3.45450002 289.691558,2.61035156 291.92041,2.61035156 C293.495288,2.61035156 294.769852,3.06412307 295.744141,3.97167969 C296.718429,4.87923631 297.205566,6.06704995 297.205566,7.53515625 C297.205566,11.205422 294.249379,13.9680897 288.336914,15.8232422 C290.045256,20.4010646 291.947092,24.1113139 294.04248,26.9541016 C296.111176,24.7919814 297.319009,22.3629692 297.666016,19.6669922 L293.541992,19.6669922 L295.443848,16.7041016 L300.749023,16.7041016 C303.378268,16.7041016 305.406894,16.2703494 306.834961,15.402832 L305.273438,17.8652344 C303.69856,19.0664123 302.210456,19.6669922 300.809082,19.6669922 L300.168457,19.6669922 C299.127436,22.8701332 297.319023,25.6328009 294.743164,27.9550781 C296.638356,30.330741 298.199864,31.5185547 299.427734,31.5185547 C300.468755,31.5185547 301.863435,30.9379941 303.611816,29.7768555 C303.758627,29.6834305 303.972167,29.5432952 304.252441,29.3564453 L303.952148,30.8378906 C301.603178,32.7731217 299.394379,33.7407227 297.325684,33.7407227 C296.124506,33.7407227 295.150232,33.52051 294.402832,33.0800781 C293.655432,32.6396462 292.661139,31.7054108 291.419922,30.2773438 Z M287.956543,14.6420898 C291.933776,13.0805586 293.922363,10.6582195 293.922363,7.375 C293.922363,5.02602992 292.954762,3.8515625 291.019531,3.8515625 C289.805007,3.8515625 288.820723,4.34870922 288.06665,5.34301758 C287.312578,6.33732594 286.935547,7.64191901 286.935547,9.25683594 C286.935547,10.7249422 287.275876,12.5200089 287.956543,14.6420898 Z M290.759277,29.2563477 C288.370268,25.746239 286.328296,21.5621988 284.633301,16.7041016 C280.922996,18.3857506 279.067871,21.0283023 279.067871,24.6318359 C279.067871,26.5403741 279.645095,28.1252378 280.799561,29.3864746 C281.954026,30.6477114 283.412101,31.2783203 285.173828,31.2783203 C286.748706,31.2783203 288.610504,30.6043362 290.759277,29.2563477 Z M325.212891,39.4262695 L328.616211,37.5244141 C330.217781,38.9925204 332.273099,39.7265625 334.782227,39.7265625 C336.543954,39.7265625 337.895259,39.2093964 338.836182,38.1750488 C339.777104,37.1407012 340.541175,35.342298 341.128418,32.7797852 C341.168457,32.6062817 341.228515,32.3527035 341.308594,32.019043 C338.932931,32.686364 336.450534,33.0200195 333.861328,33.0200195 C330.431298,33.0200195 327.725352,32.0323992 325.743408,30.0571289 C323.761465,28.0818586 322.770508,25.3925951 322.770508,21.9892578 C322.770508,16.6640359 324.625632,12.1029649 328.335938,8.3059082 C332.046243,4.50885146 336.517226,2.61035156 341.749023,2.61035156 C344.725275,2.61035156 347.628078,2.99071885 350.45752,3.75146484 L348.855957,9.03662109 L347.634766,9.03662109 C347.688151,8.56949636 347.714844,8.16243663 347.714844,7.81542969 C347.714844,6.62759823 347.074225,5.67000689 345.792969,4.94262695 C344.511712,4.21524701 342.823415,3.8515625 340.728027,3.8515625 C337.151187,3.8515625 334.004815,5.65330229 331.288818,9.25683594 C328.572822,12.8603696 327.214844,17.0310635 327.214844,21.769043 C327.214844,24.6652163 328.082348,26.9507566 329.817383,28.6257324 C331.552418,30.3007082 333.914699,31.1381836 336.904297,31.1381836 C338.746103,31.1381836 340.314284,30.9313172 341.608887,30.5175781 L343.59082,20.527832 L340.047363,20.527832 C337.698393,20.527832 335.562998,21.2818935 333.641113,22.7900391 L333.901367,21.4086914 C336.303723,19.0864142 338.706043,17.925293 341.108398,17.925293 L348.275391,17.925293 L346.713867,24.1113281 L345.772949,28.8359375 C344.905432,33.1601779 343.373953,36.3332418 341.178467,38.3552246 C338.982981,40.3772074 335.970071,41.3881836 332.139648,41.3881836 C329.256822,41.3881836 326.947925,40.7342188 325.212891,39.4262695 Z M368.935547,22.1293945 L368.575195,22.1293945 C367.06705,25.4793462 365.251964,28.2119849 363.129883,30.3273926 C361.007802,32.4428003 359.019215,33.5004883 357.164062,33.5004883 C354.347968,33.5004883 352.939941,31.7387871 352.939941,28.215332 C352.939941,24.3315235 354.488103,20.5278506 357.584473,16.8041992 C360.787614,12.9470836 364.698056,11.0185547 369.315918,11.0185547 C371.224456,11.0185547 373.219716,11.098632 375.301758,11.2587891 L373.860352,17.1845703 L371.918457,27.0742188 C371.611489,28.6224036 371.458008,29.6233701 371.458008,30.0771484 C371.458008,30.917973 371.851721,31.3383789 372.63916,31.3383789 C373.973802,31.3383789 375.962389,29.8702946 378.60498,26.934082 L378.244629,28.7958984 C375.321763,31.9323073 372.69923,33.5004883 370.376953,33.5004883 C368.441722,33.5004883 367.474121,32.4928486 367.474121,30.4775391 C367.474121,29.810218 367.634276,28.6757893 367.95459,27.0742188 L368.935547,22.1293945 Z M370.537109,14.121582 C368.85546,13.3741825 367.193856,13.0004883 365.552246,13.0004883 C363.123197,13.0004883 361.181322,14.5353037 359.726562,17.6049805 C358.018221,21.235207 357.164062,24.4983579 357.164062,27.3945312 C357.164062,29.4899193 357.777989,30.5375977 359.005859,30.5375977 C360.153652,30.5375977 361.805246,29.3331012 363.960693,26.9240723 C366.11614,24.5150433 368.007967,21.7623853 369.63623,18.6660156 L370.537109,14.121582 Z M382.02832,33.2402344 L383.509766,27.0742188 L385.47168,17.1845703 C385.778647,15.6497319 385.932129,14.6487654 385.932129,14.1816406 C385.932129,13.3541625 385.538415,12.9404297 384.750977,12.9404297 C383.443027,12.9404297 381.45444,14.4018409 378.785156,17.324707 L379.145508,15.4829102 C382.055028,12.3465012 384.67756,10.7783203 387.013184,10.7783203 C388.935068,10.7783203 389.895996,11.78596 389.895996,13.8012695 C389.895996,14.481937 389.742515,15.6096926 389.435547,17.1845703 L388.45459,22.1293945 L388.734863,22.1293945 C390.443205,18.6593251 392.308339,15.899994 394.330322,13.8513184 C396.352305,11.8026428 398.217439,10.7783203 399.925781,10.7783203 C400.819991,10.7783203 401.570716,11.1319952 402.177979,11.8393555 C402.785241,12.5467158 403.088867,13.4275663 403.088867,14.4819336 C403.088867,15.256026 402.975424,16.1835883 402.748535,17.2646484 L401.787598,22.1293945 L402.067871,22.1293945 C403.549324,18.7927893 405.297679,16.0668237 407.312988,13.951416 C409.328298,11.8360083 411.176749,10.7783203 412.858398,10.7783203 C415.220715,10.7783203 416.401855,12.0328651 416.401855,14.5419922 C416.401855,15.2893918 416.295086,16.210281 416.081543,17.3046875 L414.139648,27.0742188 C413.832681,28.6090572 413.679199,29.6100237 413.679199,30.0771484 C413.679199,30.917973 414.072913,31.3383789 414.860352,31.3383789 C416.181647,31.3383789 418.170234,29.8702946 420.826172,26.934082 L420.46582,28.7958984 C417.556301,31.9323073 414.933768,33.5004883 412.598145,33.5004883 C410.662914,33.5004883 409.695312,32.4928486 409.695312,30.4775391 C409.695312,29.8235644 409.855467,28.6891357 410.175781,27.0742188 L412.117676,17.3046875 C412.304526,16.4238237 412.397949,15.7832051 412.397949,15.3828125 C412.397949,14.2750596 411.984216,13.7211914 411.156738,13.7211914 C408.834461,13.7211914 405.471213,17.7317307 401.066895,25.7529297 L399.56543,33 L395.641602,33.2402344 L398.784668,17.3447266 C398.958171,16.4638628 399.044922,15.8232442 399.044922,15.4228516 C399.044922,14.2884058 398.644535,13.7211914 397.84375,13.7211914 C396.842768,13.7211914 395.364674,14.8956588 393.409424,17.2446289 C391.454173,19.593599 389.549,22.4830558 387.693848,25.9130859 L386.232422,33 L382.02832,33.2402344 Z M440.185059,27.534668 L439.884766,29.0761719 C435.640604,32.0257309 432.023778,33.5004883 429.03418,33.5004883 C427.138988,33.5004883 425.600836,32.8365138 424.419678,31.5085449 C423.238519,30.180576 422.647949,28.4622501 422.647949,26.3535156 C422.647949,22.5898249 424.089341,19.0497399 426.972168,15.7331543 C429.854995,12.4165687 432.931299,10.7583008 436.201172,10.7583008 C437.389003,10.7583008 438.349931,11.1586874 439.083984,11.9594727 C439.818038,12.7602579 440.185059,13.8012631 440.185059,15.0825195 C440.185059,17.6450323 438.877129,19.8471588 436.26123,21.6889648 C433.645332,23.5307709 430.522316,24.4516602 426.89209,24.4516602 L426.87207,25.3525391 C426.87207,29.249694 428.300116,31.1982422 431.15625,31.1982422 C433.625338,31.1982422 436.634911,29.977063 440.185059,27.534668 Z M426.932129,23.2104492 C429.921727,22.9702136 432.257316,22.1994694 433.938965,20.8981934 C435.620614,19.5969173 436.461426,17.911957 436.461426,15.8432617 C436.461426,13.8012593 435.720711,12.7802734 434.239258,12.7802734 C432.637687,12.7802734 431.089526,13.8446345 429.594727,15.9733887 C428.099927,18.1021428 427.212404,20.5144722 426.932129,23.2104492 Z M442.207031,32.3193359 L444.82959,29.6166992 C446.564625,30.8846092 448.332999,31.5185547 450.134766,31.5185547 C451.242519,31.5185547 452.176754,31.2282744 452.9375,30.6477051 C453.698246,30.0671358 454.078613,29.3497764 454.078613,28.4956055 C454.078613,27.5480096 453.324552,26.2534262 451.816406,24.6118164 L449.994629,22.6098633 C448.219555,20.6612858 447.332031,19.0330469 447.332031,17.7250977 C447.332031,15.9099844 448.192862,14.2984283 449.914551,12.8903809 C451.636239,11.4823335 453.604807,10.7783203 455.820312,10.7783203 C457.034837,10.7783203 458.396151,11.0318985 459.904297,11.5390625 L459.023437,15.9633789 L457.762207,15.9633789 L457.822266,15.6230469 C457.848958,15.5029291 457.862305,15.3627938 457.862305,15.2026367 C457.862305,13.4008699 456.701183,12.5 454.378906,12.5 C451.776354,12.5 450.475098,13.5410052 450.475098,15.6230469 C450.475098,16.6774141 451.249178,18.0787673 452.797363,19.8271484 L454.438965,21.6489258 C456.227385,23.6642353 457.121582,25.3191667 457.121582,26.6137695 C457.121582,28.4021899 456.174,29.9970633 454.278809,31.3984375 C452.383617,32.7998117 450.228202,33.5004883 447.8125,33.5004883 C446.117505,33.5004883 444.249034,33.1067748 442.207031,32.3193359 Z" id="Fitness-Fun-&amp;-Games" fill="#000000"></path>
    </g>
</svg>